# xmcd CD database file
#
# Track frame offsets:
#	150
#	22359
#	45623
#	67688
#	92373
#	113910
#	133798
#	146788
#	169601
#	185361
#	203896
#	224536
#	244873
#	263781
#	286818
#	317566
#
# Disc length: 4511 seconds
#
# Revision: 0
# Processed by: cddbd v1.5.2PL0 Copyright (c) Steve Scherf et al.
# Submitted via: CDex 1.51
#
DISCID=ec119d10
DTITLE=VARIOS - 16 JOYAS DE SALSA
DYEAR=2005
DGENRE=Salsa
TTITLE0=LOBO DOMESTICADO - José Luis Sánchez
TTITLE1=HOJA EN BLANCO - Isma Group
TTITLE2=LA VIDA ES UN CARNAVAL - Isma Group
TTITLE3=QUE MANERA - Israel Kantor
TTITLE4=LA INCONDICIONAL - José Luis Sánchez
TTITLE5=QUIEREME SIEMPRE - Zamudio y sus Columbian's Boys
TTITLE6=YO SE QUE NO ES FELIZ - Isma Group
TTITLE7=ODIAME - Israel Kantor
TTITLE8=COMO QUIEN PIERDE UNA ESTRELLA - Isma Group
TTITLE9=MÁS AMOR - Dimensión Colombiana
TTITLE10=MARGARITA - Dimensión Colombiana
TTITLE11=DESDE EL FONDO DE MI CORAZON - Isma Group
TTITLE12=TE AMO - Zamudio y sus Columbian's Boys
TTITLE13=TOCO MADERA - Dimensión Colombiana
TTITLE14=EL GRAN BARÓN - Isma Group
TTITLE15=PEDRO NAVAJAS - Isma Group
EXTD=YEAR: 2005
EXTT0=
EXTT1=
EXTT2=
EXTT3=
EXTT4=
EXTT5=
EXTT6=
EXTT7=
EXTT8=
EXTT9=
EXTT10=
EXTT11=
EXTT12=
EXTT13=
EXTT14=
EXTT15=
PLAYORDER=
